<svg width="50" height="62" viewBox="0 0 50 62" fill="none" xmlns="http://www.w3.org/2000/svg">
<rect x="6" width="37" height="60" fill="black"/>
<rect x="13" y="11" width="5.83332" height="9.99998" fill="white"/>
<rect x="13" y="26" width="5.83332" height="9.99998" fill="white"/>
<rect x="22.1665" y="11" width="5.83332" height="9.99998" fill="white"/>
<rect x="22.1665" y="26" width="5.83332" height="9.99998" fill="white"/>
<rect x="31.333" y="11" width="5.83332" height="9.99998" fill="white"/>
<rect x="31.333" y="26" width="5.83332" height="9.99998" fill="white"/>
<rect x="30" y="47" width="7" height="12" fill="white"/>
<circle cx="35.5" cy="53.5" r="0.5" fill="black"/>
<rect y="60" width="50" height="2" fill="black"/>
<circle cx="35.576" cy="19.0169" r="0.845521" fill="black" stroke="black" stroke-width="0.342857"/>
<path d="M34.043 20.7C34.0778 20.4988 34.4414 20.1309 34.8144 20.2164C35.2806 20.3233 35.3042 20.5532 35.6839 20.4C35.9714 20.284 36.5795 19.92 36.9573 20.5714" stroke="black" stroke-width="0.342857"/>
<path d="M34.0558 20.6572C34.0137 20.8486 33.9547 21.2416 34.0558 21.2825C34.1569 21.3233 36.0272 21.2995 36.9498 21.2825C36.9877 21.0995 37.0407 20.6954 36.9498 20.5423" stroke="black" stroke-width="0.342857"/>
<path d="M35.662 20.7566C35.5555 20.758 35.4458 20.7666 35.3393 20.76C35.3287 20.7593 35.3502 20.7399 35.3601 20.7358C35.4213 20.7105 35.4893 20.7201 35.5502 20.741C35.554 20.7423 35.5967 20.7538 35.5962 20.7646C35.5955 20.7816 35.5675 20.784 35.5509 20.788C35.4795 20.8051 35.4055 20.8125 35.3326 20.8183C35.2901 20.8216 35.2475 20.8243 35.2048 20.825C35.1824 20.8253 35.1594 20.8267 35.1376 20.8214C35.1334 20.8204 35.1404 20.8114 35.1447 20.8105C35.212 20.7964 35.2933 20.81 35.3305 20.8751C35.4078 21.0104 35.1804 21.1351 35.0815 21.0448C35.0159 20.9848 34.9962 20.8836 34.9969 20.7995C34.9973 20.7472 35.0068 20.6348 35.0793 20.6211C35.1416 20.6093 35.2017 20.6801 35.2301 20.723C35.2737 20.7889 35.3082 20.8847 35.2661 20.9598C35.2131 21.0543 35.089 21.0352 35.0366 20.9525C35.0015 20.8973 34.9778 20.8141 34.9939 20.7485C35.0089 20.6872 35.0676 20.6837 35.1187 20.6924C35.1807 20.7029 35.404 20.7747 35.3157 20.8706C35.2783 20.9112 35.2192 20.9395 35.1636 20.9408C35.082 20.9427 35.029 20.8699 35.0255 20.7934C35.0189 20.6523 35.2161 20.6471 35.3118 20.6616C35.356 20.6683 35.4019 20.6813 35.4419 20.7017C35.4711 20.7165 35.4655 20.7274 35.4367 20.7394C35.3914 20.7582 35.3418 20.7679 35.2932 20.7733C35.273 20.7756 35.2179 20.7855 35.1993 20.7663C35.1803 20.7467 35.2081 20.7078 35.2189 20.6939C35.2492 20.6549 35.2869 20.6367 35.3277 20.6129" stroke="black" stroke-width="0.257143" stroke-linecap="round"/>
<path d="M35.3277 20.613C35.2974 20.5511 35.3043 20.3747 35.4096 20.3981C35.4328 20.4033 35.4703 20.4187 35.4523 20.4481C35.4434 20.4626 35.3898 20.5198 35.3882 20.5216C35.2961 20.6257 35.2068 20.7324 35.1093 20.8317C34.9698 20.9738 34.8176 21.1144 34.6388 21.206C34.6146 21.2184 34.4639 21.298 34.4801 21.209C34.494 21.1319 34.5567 21.0655 34.6347 21.0517C34.7208 21.0365 34.823 21.0975 34.8516 21.1808C34.8687 21.2307 34.8348 21.2837 34.7859 21.2985C34.71 21.3214 34.6374 21.2345 34.6405 21.1637C34.6407 21.159 34.6492 21.1157 34.6702 21.1225C34.6885 21.1283 34.6499 21.1571 34.6332 21.1668C34.5446 21.2184 34.4352 21.2258 34.3566 21.1525C34.322 21.1203 34.2824 21.0558 34.3139 21.0084C34.3431 20.9645 34.4159 20.9698 34.45 21.0031C34.4878 21.04 34.4379 21.068 34.4026 21.0719C34.3267 21.0804 34.2728 21.0302 34.2641 20.9561C34.2571 20.8959 34.2819 20.8355 34.3464 20.8231C34.3903 20.8147 34.4858 20.8408 34.4773 20.9026C34.47 20.9552 34.3957 20.9887 34.3491 20.9836C34.3173 20.98 34.2829 20.9585 34.2682 20.9293C34.2375 20.8685 34.2704 20.8026 34.3213 20.7665C34.4087 20.7046 34.5115 20.741 34.5941 20.7905C34.6496 20.8237 34.7587 20.9074 34.6622 20.9661C34.592 21.0088 34.4928 21.0066 34.4242 20.962C34.3358 20.9046 34.2723 20.7612 34.3356 20.6642C34.3792 20.5974 34.474 20.5999 34.5419 20.6165C34.571 20.6236 34.5981 20.6335 34.6215 20.6523C34.6474 20.6731 34.6357 20.6963 34.615 20.7173C34.5685 20.7645 34.4865 20.8156 34.4167 20.7949C34.3246 20.7676 34.3306 20.6491 34.3972 20.6C34.4701 20.5462 34.5782 20.5451 34.6628 20.5637C34.7101 20.5742 34.8374 20.6191 34.8159 20.6928C34.8091 20.7165 34.7789 20.7421 34.7595 20.7522C34.7027 20.7817 34.6386 20.782 34.5835 20.7487C34.5513 20.7292 34.5231 20.7005 34.5148 20.6623C34.4994 20.5922 34.5813 20.5631 34.6344 20.5539C34.7687 20.5307 34.9336 20.5598 35.0462 20.6393C35.0562 20.6464 35.1002 20.6834 35.0844 20.7088C35.0539 20.7581 34.9331 20.7359 34.8967 20.7292C34.7498 20.7021 34.6086 20.6392 34.4832 20.5591C34.4636 20.5466 34.4329 20.5258 34.4141 20.5073C34.3994 20.4928 34.423 20.4917 34.4342 20.49C34.509 20.4788 34.5875 20.4786 34.6629 20.4804C34.751 20.4825 34.8516 20.4847 34.9342 20.5197C34.9443 20.524 35.0282 20.5738 34.9805 20.5788C34.9497 20.582 34.92 20.586 34.891 20.5974C34.8823 20.6007 34.8532 20.6172 34.8837 20.599C34.9388 20.5662 35.0004 20.5358 35.0662 20.5366C35.1086 20.5372 35.1391 20.5475 35.1754 20.5689C35.2443 20.6096 35.2725 20.6724 35.2348 20.7515C35.1529 20.9235 34.9488 21.0415 34.7606 21.0363C34.7097 21.0349 34.6394 21.0112 34.5942 20.9839C34.5664 20.9672 34.5421 20.9409 34.5779 20.9197C34.6173 20.8963 34.6571 20.89 34.7032 20.8861C34.8358 20.8749 34.9687 20.8971 35.0993 20.9167C35.2544 20.94 35.4103 20.9624 35.5642 20.9928C35.599 20.9997 35.6333 21.0086 35.669 21.0055C35.713 21.0016 35.7568 20.9986 35.8012 20.9995C35.825 21 35.8548 21.0017 35.8788 21.004C35.8878 21.0049 35.8968 21.006 35.9057 21.0073C35.9112 21.0082 35.919 21.006 35.9222 21.0107C35.9244 21.0139 35.9167 21.0166 35.9131 21.0181C35.8986 21.0243 35.8836 21.0297 35.8684 21.0337C35.7395 21.0678 35.6071 21.0827 35.4738 21.0797C35.3542 21.0771 35.2422 21.0562 35.1299 21.0174C35.123 21.0149 35.1135 21.0165 35.1088 21.0109C35.1032 21.0042 35.126 21.0085 35.1346 21.0096C35.1595 21.0127 35.1687 21.0283 35.1598 21.0523C35.1519 21.0736 35.1129 21.101 35.1554 21.1007C35.2797 21.1 35.4069 21.0507 35.52 21.0049C35.6609 20.9479 35.8168 20.8784 35.9248 20.7671C35.9621 20.7286 35.9068 20.7201 35.8754 20.7117C35.7897 20.6889 35.6905 20.6662 35.6012 20.6778C35.5733 20.6814 35.5461 20.69 35.5191 20.6974C35.5167 20.6981 35.5102 20.7011 35.5117 20.6991C35.5122 20.6983 35.5133 20.6981 35.5141 20.6976C35.5302 20.6892 35.5464 20.6809 35.5627 20.6727C35.6755 20.6166 35.8034 20.5561 35.9326 20.5561" stroke="black" stroke-width="0.257143" stroke-linecap="round"/>
<path d="M35.2572 20.9705C35.2176 21.0662 35.118 21.1253 35.0196 21.1428C34.96 21.1535 34.8981 21.1483 34.8378 21.1525C34.7945 21.1555 34.7487 21.1253 34.7106 21.109C34.6266 21.0733 34.5398 21.069 34.4495 21.063C34.4055 21.0601 34.3611 21.0632 34.3171 21.0591C34.3001 21.0575 34.2827 21.0565 34.2655 21.0576C34.2417 21.0591 34.219 21.0682 34.1959 21.0734C34.1821 21.0765 34.1669 21.0779 34.1543 21.0842" stroke="black" stroke-width="0.257143" stroke-linecap="round"/>
<path d="M35.9571 20.8847C36.0784 20.8889 36.1996 20.8889 36.321 20.8857C36.4322 20.8828 36.5803 20.8938 36.6876 20.8491C36.7259 20.8331 36.6763 20.8662 36.6727 20.8684C36.5589 20.9378 36.4285 20.9879 36.3026 21.03C36.1976 21.0651 36.0916 21.0895 35.982 21.1047C35.9457 21.1097 35.834 21.1131 35.9592 21.1206C36.104 21.1292 36.2452 21.126 36.3895 21.1144C36.4927 21.106 36.5898 21.1436 36.6897 21.1642C36.7112 21.1686 36.7817 21.1888 36.8097 21.1752C36.8277 21.1665 36.8311 21.1218 36.8346 21.1057C36.8401 21.0804 36.8496 21.0485 36.8394 21.023C36.8318 21.0038 36.8119 20.9895 36.8 20.9729C36.7836 20.9499 36.7697 20.9194 36.7454 20.9034C36.7187 20.8858 36.6847 20.9301 36.6703 20.9452C36.6526 20.9638 36.6403 20.9789 36.6243 20.9981C36.6197 21.0037 36.6156 21.0198 36.6105 21.0147C36.6056 21.0098 36.6761 20.9448 36.6779 20.9431C36.6903 20.932 36.7272 20.9041 36.7222 20.92C36.6997 20.9915 36.6258 21.0558 36.5728 21.104C36.5463 21.1281 36.48 21.1902 36.478 21.1545C36.4747 21.0959 36.5321 21.0349 36.5707 20.9995C36.6219 20.9525 36.6837 20.9133 36.7512 20.8951C36.7575 20.8934 36.7813 20.8947 36.7851 20.8854C36.8056 20.8351 36.8109 20.7763 36.826 20.7242C36.8334 20.6985 36.8535 20.6246 36.8585 20.6509C36.8613 20.6658 36.8322 20.6998 36.8273 20.7055C36.7761 20.7659 36.7082 20.8137 36.6343 20.8422C36.6064 20.8529 36.5438 20.8745 36.5309 20.8304C36.5144 20.7736 36.5425 20.6975 36.5749 20.6516C36.5924 20.6266 36.6273 20.5942 36.661 20.5942C36.6928 20.5942 36.6446 20.657 36.6267 20.6834C36.5859 20.7436 36.5357 20.8075 36.4697 20.8418C36.4206 20.8674 36.4435 20.7966 36.4503 20.7754C36.4652 20.729 36.4875 20.6821 36.5299 20.6543C36.5581 20.6359 36.6107 20.6245 36.635 20.6564C36.6811 20.7169 36.614 20.8158 36.5527 20.8342C36.4767 20.8571 36.5074 20.6471 36.5178 20.6149C36.5189 20.6113 36.547 20.5712 36.5372 20.5897C36.5004 20.6582 36.4357 20.7178 36.3756 20.765C36.3233 20.8062 36.1008 20.9521 36.128 20.7775C36.1391 20.7061 36.1788 20.6348 36.2442 20.6004C36.2815 20.5807 36.3471 20.564 36.3881 20.5845C36.4257 20.6033 36.3549 20.662 36.3466 20.6689C36.2846 20.7196 36.1882 20.7767 36.1038 20.7546C35.9668 20.7188 35.9629 20.4828 36.0982 20.4427C36.1878 20.4161 36.1859 20.5304 36.1463 20.5765C36.105 20.6247 35.9249 20.7449 35.9049 20.6146C35.8814 20.4618 36.1039 20.421 36.2079 20.4236C36.3318 20.4268 36.4451 20.4707 36.5333 20.5589C36.5481 20.5736 36.5617 20.5896 36.5762 20.6045C36.5778 20.6061 36.5966 20.6254 36.597 20.6246C36.6064 20.6023 36.5985 20.5602 36.5984 20.5367C36.5981 20.4902 36.5903 20.4624 36.5672 20.424" stroke="black" stroke-width="0.257143" stroke-linecap="round"/>
</svg>
