<svg width="21" height="36" viewBox="0 0 21 36" fill="none" xmlns="http://www.w3.org/2000/svg">
<path d="M9.92244 11.5815C10.1758 11.8349 10.5866 11.8349 10.84 11.5815L14.9691 7.4524C15.2225 7.19902 15.2225 6.7882 14.9691 6.53482C14.7157 6.28144 14.3049 6.28144 14.0515 6.53482L10.3812 10.2051L6.71092 6.53482C6.45754 6.28144 6.04673 6.28144 5.79334 6.53482C5.53996 6.7882 5.53996 7.19902 5.79334 7.4524L9.92244 11.5815ZM9.7324 0L9.7324 11.1227H11.03L11.03 0L9.7324 0Z" fill="black"/>
<rect y="22.4192" width="20.1374" height="12.9918" rx="1.94878" fill="black"/>
<path d="M0.741455 24.2883C3.77987 17.9158 11.6558 8.54491 19.2793 23.9175" stroke="black" stroke-width="1.48303"/>
</svg>
