<svg width="80" height="23" viewBox="0 0 80 23" fill="none" xmlns="http://www.w3.org/2000/svg">
<circle cx="12.1417" cy="6.54291" r="5.43996" fill="black" stroke="black" stroke-width="2.2059"/>
<path d="M2.276 17.3713C2.50031 16.0767 4.83944 13.7099 7.23927 14.2602C10.239 14.948 10.3906 16.4268 12.8338 15.4411C14.6833 14.695 18.5959 12.3528 21.0261 16.5441" stroke="black" stroke-width="2.2059"/>
<path d="M2.35915 17.0962C2.08813 18.3278 1.7087 20.8567 2.35915 21.1194C3.0096 21.3821 15.043 21.2289 20.9784 21.1194C21.2223 19.9426 21.5638 17.3426 20.9784 16.3573" stroke="black" stroke-width="2.2059"/>
<path d="M12.6914 17.7359C12.0063 17.7446 11.3003 17.8003 10.6151 17.7574C10.5469 17.7532 10.6857 17.6282 10.7489 17.6021C11.1432 17.4393 11.5807 17.5008 11.9722 17.6356C11.9967 17.644 12.2716 17.718 12.2685 17.7873C12.2635 17.8965 12.0833 17.9123 11.977 17.9378C11.5176 18.048 11.0412 18.0955 10.5721 18.1325C10.2986 18.1542 10.0245 18.1711 9.75019 18.1755C9.60586 18.1779 9.45807 18.1866 9.31773 18.1529C9.29056 18.1463 9.33578 18.0881 9.36313 18.0824C9.79621 17.9917 10.3196 18.0792 10.559 18.4981C11.0563 19.3684 9.5933 20.1709 8.95695 19.59C8.53438 19.2042 8.408 18.5531 8.4122 18.0119C8.41481 17.6755 8.47631 16.952 8.94262 16.8638C9.34322 16.7881 9.73009 17.2438 9.91266 17.5197C10.193 17.9434 10.4151 18.5598 10.1444 19.0429C9.80372 19.6508 9.00523 19.5279 8.66785 18.9963C8.44228 18.6408 8.2898 18.1054 8.39309 17.6834C8.48951 17.2894 8.86731 17.2669 9.19588 17.3226C9.59522 17.3903 11.0318 17.8525 10.4634 18.4694C10.2232 18.7302 9.84262 18.9127 9.48498 18.921C8.96014 18.9332 8.61898 18.4649 8.59617 17.9725C8.55414 17.0649 9.8229 17.0309 10.4383 17.1243C10.7229 17.1674 11.0181 17.2515 11.2757 17.3823C11.4634 17.4776 11.4272 17.5478 11.2423 17.6248C10.9507 17.7463 10.6314 17.8081 10.3188 17.8434C10.1887 17.8581 9.83411 17.9217 9.71435 17.798C9.59249 17.6723 9.77134 17.4218 9.84098 17.3321C10.0359 17.0812 10.2782 16.9646 10.541 16.8113" stroke="black" stroke-width="1.65442" stroke-linecap="round"/>
<path d="M10.5415 16.8113C10.3469 16.4134 10.3907 15.2785 11.0683 15.4291C11.2175 15.4622 11.459 15.5614 11.3431 15.7504C11.2858 15.8437 10.9409 16.2122 10.9309 16.2235C10.3381 16.8932 9.76362 17.5797 9.13657 18.2185C8.23922 19.1327 7.25945 20.0378 6.10937 20.6269C5.95342 20.7068 4.98408 21.2188 5.08796 20.646C5.17783 20.1504 5.58127 19.7226 6.08309 19.6342C6.63674 19.5366 7.2944 19.9285 7.47842 20.4644C7.58866 20.7855 7.37054 21.1269 7.05552 21.2218C6.56723 21.3691 6.10039 20.8105 6.12012 20.3545C6.12144 20.3242 6.176 20.046 6.31126 20.0893C6.42921 20.1271 6.18056 20.3125 6.07353 20.3748C5.50303 20.7069 4.79969 20.7543 4.29353 20.2829C4.07099 20.0756 3.81618 19.6608 4.01876 19.3558C4.20664 19.073 4.67537 19.1073 4.89443 19.3212C5.13812 19.5591 4.81702 19.7391 4.5898 19.7644C4.10154 19.8188 3.75445 19.4956 3.6986 19.0189C3.65323 18.6318 3.813 18.2434 4.22782 18.1636C4.51056 18.1092 5.1249 18.2771 5.07004 18.6749C5.02338 19.0132 4.54529 19.2291 4.24574 19.1957C4.04081 19.1729 3.81937 19.0344 3.72488 18.8469C3.52759 18.4555 3.73893 18.0315 4.06655 17.7992C4.62861 17.4007 5.29001 17.6354 5.82146 17.9533C6.17902 18.1672 6.8805 18.7054 6.25989 19.0834C5.80848 19.3584 5.16976 19.3442 4.72837 19.0572C4.15991 18.6875 3.75132 17.7654 4.15853 17.141C4.43895 16.711 5.04911 16.7274 5.48577 16.834C5.67316 16.8797 5.84737 16.9433 5.99827 17.0645C6.16439 17.198 6.08953 17.3475 5.95646 17.4826C5.65726 17.7865 5.12916 18.1149 4.68059 17.982C4.08757 17.8063 4.12666 17.0438 4.55515 16.7276C5.02376 16.3818 5.71954 16.3749 6.26348 16.4947C6.56793 16.5617 7.38687 16.8507 7.24905 17.325C7.20478 17.4773 7.01042 17.6425 6.88588 17.7072C6.5207 17.8971 6.10803 17.8991 5.75337 17.6845C5.5463 17.5593 5.365 17.3744 5.31135 17.129C5.21266 16.6776 5.73915 16.4903 6.0807 16.4314C6.94488 16.2821 8.00621 16.4696 8.73039 16.9809C8.79457 17.0262 9.07761 17.2642 8.97649 17.4277C8.78012 17.7451 8.00282 17.6022 7.76871 17.5591C6.82336 17.3849 5.91484 16.9803 5.10827 16.4648C4.98241 16.3844 4.78438 16.2504 4.66386 16.1315C4.56908 16.038 4.72081 16.0312 4.79288 16.0204C5.27442 15.9481 5.77951 15.9467 6.26467 15.9583C6.83128 15.9719 7.47869 15.9864 8.01003 16.2116C8.07509 16.2391 8.61437 16.5596 8.30749 16.5914C8.10956 16.612 7.9186 16.6378 7.73168 16.7109C7.67593 16.7327 7.48904 16.8385 7.68509 16.7217C8.03972 16.5102 8.4357 16.3147 8.85941 16.3203C9.13167 16.3238 9.32808 16.3902 9.56186 16.5281C10.0052 16.7897 10.1863 17.1938 9.94414 17.7025C9.41708 18.8096 8.1037 19.5687 6.89305 19.535C6.56524 19.5259 6.11342 19.3734 5.82266 19.1981C5.64376 19.0903 5.48729 18.9213 5.71753 18.7848C5.97089 18.6345 6.22677 18.5937 6.52391 18.5686C7.37706 18.4965 8.23172 18.6394 9.07206 18.7657C10.0702 18.9157 11.073 19.0596 12.0634 19.2555C12.2874 19.2998 12.5078 19.3568 12.7372 19.3367C13.0209 19.3119 13.3025 19.2925 13.5878 19.2985C13.7411 19.3017 13.9332 19.3123 14.0871 19.3272C14.145 19.3327 14.2028 19.3398 14.2603 19.3487C14.2961 19.3542 14.3461 19.3404 14.3667 19.3702C14.381 19.3909 14.3313 19.408 14.3081 19.4179C14.2147 19.4579 14.1185 19.4923 14.0202 19.5183C13.1911 19.738 12.3394 19.8337 11.4816 19.8146C10.7124 19.7974 9.9914 19.663 9.26917 19.4132C9.22429 19.3976 9.16338 19.4078 9.13298 19.3714C9.0975 19.3288 9.24405 19.3561 9.29904 19.363C9.45925 19.3832 9.51839 19.4837 9.46151 19.6378C9.41082 19.775 9.15938 19.9512 9.43284 19.9496C10.2327 19.9447 11.0514 19.6277 11.7791 19.3331C12.6853 18.9663 13.6885 18.5188 14.3834 17.8028C14.6233 17.5556 14.2674 17.5005 14.0656 17.4468C13.5139 17.3001 12.8755 17.1539 12.3011 17.2282C12.1217 17.2514 11.947 17.3067 11.7731 17.3548C11.7574 17.3592 11.7155 17.3786 11.7253 17.3656C11.729 17.3607 11.7355 17.3588 11.7409 17.356C11.8448 17.3018 11.949 17.2482 12.0539 17.1959C12.7793 16.8347 13.602 16.4457 14.4336 16.4457" stroke="black" stroke-width="1.65442" stroke-linecap="round"/>
<path d="M10.0896 19.1121C9.8346 19.7277 9.19379 20.1076 8.56052 20.2207C8.17712 20.2891 7.77897 20.2557 7.39097 20.2828C7.11264 20.3022 6.8179 20.1077 6.57265 20.0033C6.03246 19.7731 5.47357 19.7455 4.893 19.707C4.60953 19.6882 4.32383 19.7086 4.04122 19.6819C3.93153 19.6716 3.81938 19.6652 3.70912 19.6723C3.55592 19.6822 3.40999 19.7407 3.26113 19.7739C3.1722 19.7937 3.07448 19.8027 2.99353 19.8432" stroke="black" stroke-width="1.65442" stroke-linecap="round"/>
<path d="M14.5921 18.5595C15.3727 18.5867 16.1521 18.5865 16.9331 18.5662C17.6488 18.5475 18.6015 18.618 19.292 18.3303C19.5385 18.2276 19.2194 18.4409 19.1963 18.4549C18.4638 18.901 17.6249 19.2235 16.8152 19.4941C16.1391 19.7201 15.4576 19.8773 14.7523 19.9748C14.5186 20.0071 13.7998 20.0291 14.6055 20.0772C15.5374 20.1328 16.4453 20.1123 17.3737 20.0371C18.0378 19.9834 18.6627 20.2254 19.3053 20.3576C19.444 20.3861 19.8974 20.5161 20.0775 20.4288C20.1932 20.3727 20.215 20.085 20.2377 19.9815C20.2734 19.8187 20.3343 19.6133 20.2689 19.4496C20.2194 19.3261 20.0916 19.2339 20.0152 19.127C19.9094 18.9788 19.8203 18.7827 19.6636 18.6797C19.492 18.5669 19.2732 18.8517 19.1807 18.9489C19.0669 19.0684 18.9873 19.1653 18.8847 19.2894C18.8552 19.3251 18.8285 19.429 18.7957 19.3962C18.7641 19.3647 19.2177 18.9464 19.2296 18.9356C19.3092 18.8638 19.5467 18.6843 19.5145 18.7865C19.3697 19.2465 18.8943 19.6602 18.5532 19.9704C18.3827 20.1253 17.9566 20.5252 17.9434 20.2952C17.9219 19.9183 18.2917 19.5259 18.5398 19.2983C18.8693 18.996 19.267 18.7433 19.7014 18.6263C19.7418 18.6154 19.895 18.6241 19.9195 18.564C20.0511 18.2403 20.0852 17.8624 20.1821 17.527C20.2298 17.3617 20.3591 16.8862 20.3913 17.0552C20.4096 17.1514 20.2222 17.37 20.191 17.4068C19.8615 17.7951 19.4245 18.103 18.9493 18.2858C18.7697 18.3549 18.3665 18.4939 18.2839 18.2101C18.1775 17.8448 18.3582 17.3553 18.5665 17.0597C18.6796 16.8992 18.9041 16.6903 19.1206 16.6903C19.3256 16.6903 19.0153 17.0947 18.9003 17.2644C18.6375 17.6519 18.3143 18.0627 17.89 18.2836C17.5739 18.4481 17.7216 17.9928 17.7654 17.8563C17.8613 17.5575 18.0047 17.2557 18.2772 17.0775C18.459 16.9585 18.7971 16.8852 18.9537 17.0908C19.2501 17.4799 18.8184 18.116 18.4241 18.2346C17.9347 18.3819 18.1328 17.031 18.1993 16.8238C18.2067 16.8008 18.3875 16.5428 18.3239 16.6613C18.0873 17.1023 17.6711 17.4856 17.2847 17.7896C16.9482 18.0543 15.5167 18.9934 15.6914 17.8697C15.7628 17.4104 16.0182 16.9518 16.4391 16.7303C16.6794 16.6039 17.1011 16.4961 17.3648 16.6279C17.6071 16.7491 17.1516 17.1269 17.0978 17.1709C16.6989 17.4974 16.0786 17.865 15.5356 17.7228C14.6541 17.4919 14.6291 15.9738 15.5 15.7156C16.0764 15.5447 16.0642 16.2799 15.8094 16.5768C15.5435 16.8864 14.3851 17.6602 14.2561 16.8216C14.1049 15.8386 15.5365 15.576 16.2055 15.5932C17.0029 15.6136 17.732 15.8958 18.2995 16.4633C18.3943 16.5581 18.4818 16.6607 18.5754 16.757C18.5853 16.7672 18.7067 16.8914 18.7089 16.8861C18.7697 16.7423 18.7188 16.4719 18.7178 16.3209C18.7159 16.0213 18.666 15.8428 18.5175 15.5954" stroke="black" stroke-width="1.65442" stroke-linecap="round"/>
<circle cx="68.84" cy="6.54291" r="5.43996" fill="black" stroke="black" stroke-width="2.2059"/>
<path d="M58.9744 17.3713C59.1987 16.0767 61.5378 13.7099 63.9376 14.2602C66.9374 14.948 67.0889 16.4268 69.5322 15.4411C71.3817 14.695 75.2942 12.3528 77.7245 16.5441" stroke="black" stroke-width="2.2059"/>
<path d="M59.0576 17.0962C58.7866 18.3278 58.4072 20.8567 59.0576 21.1194C59.7081 21.3821 71.7415 21.2289 77.6768 21.1194C77.9208 19.9426 78.2622 17.3426 77.6768 16.3573" stroke="black" stroke-width="2.2059"/>
<path d="M69.3899 17.7359C68.7048 17.7446 67.9988 17.8003 67.3136 17.7574C67.2454 17.7532 67.3842 17.6282 67.4474 17.6021C67.8417 17.4393 68.2792 17.5008 68.6707 17.6356C68.6952 17.644 68.9701 17.718 68.967 17.7873C68.962 17.8965 68.7818 17.9123 68.6755 17.9378C68.216 18.048 67.7397 18.0955 67.2706 18.1325C66.9971 18.1542 66.723 18.1711 66.4487 18.1755C66.3043 18.1779 66.1566 18.1866 66.0162 18.1529C65.989 18.1463 66.0343 18.0881 66.0616 18.0824C66.4947 17.9917 67.0181 18.0792 67.2574 18.4981C67.7548 19.3684 66.2918 20.1709 65.6554 19.59C65.2329 19.2042 65.1065 18.5531 65.1107 18.0119C65.1133 17.6755 65.1748 16.952 65.6411 16.8638C66.0417 16.7881 66.4286 17.2438 66.6111 17.5197C66.8915 17.9434 67.1136 18.5598 66.8429 19.0429C66.5022 19.6508 65.7037 19.5279 65.3663 18.9963C65.1408 18.6408 64.9883 18.1054 65.0916 17.6834C65.188 17.2894 65.5658 17.2669 65.8944 17.3226C66.2937 17.3903 67.7303 17.8525 67.1619 18.4694C66.9217 18.7302 66.5411 18.9127 66.1835 18.921C65.6586 18.9332 65.3175 18.4649 65.2947 17.9725C65.2526 17.0649 66.5214 17.0309 67.1368 17.1243C67.4214 17.1674 67.7166 17.2515 67.9742 17.3823C68.1618 17.4776 68.1257 17.5478 67.9408 17.6248C67.6492 17.7463 67.3299 17.8081 67.0173 17.8434C66.8872 17.8581 66.5326 17.9217 66.4128 17.798C66.291 17.6723 66.4698 17.4218 66.5395 17.3321C66.7344 17.0812 66.9767 16.9646 67.2395 16.8113" stroke="black" stroke-width="1.65442" stroke-linecap="round"/>
<path d="M67.2399 16.8113C67.0454 16.4134 67.0892 15.2785 67.7668 15.4291C67.916 15.4622 68.1575 15.5614 68.0415 15.7504C67.9843 15.8437 67.6394 16.2122 67.6294 16.2235C67.0366 16.8932 66.4621 17.5797 65.8351 18.2185C64.9377 19.1327 63.9579 20.0378 62.8079 20.6269C62.6519 20.7068 61.6826 21.2188 61.7864 20.646C61.8763 20.1504 62.2798 19.7226 62.7816 19.6342C63.3352 19.5366 63.9929 19.9285 64.1769 20.4644C64.2871 20.7855 64.069 21.1269 63.754 21.2218C63.2657 21.3691 62.7989 20.8105 62.8186 20.3545C62.8199 20.3242 62.8745 20.046 63.0097 20.0893C63.1277 20.1271 62.879 20.3125 62.772 20.3748C62.2015 20.7069 61.4982 20.7543 60.992 20.2829C60.7695 20.0756 60.5147 19.6608 60.7172 19.3558C60.9051 19.073 61.3739 19.1073 61.5929 19.3212C61.8366 19.5591 61.5155 19.7391 61.2883 19.7644C60.8 19.8188 60.4529 19.4956 60.3971 19.0189C60.3517 18.6318 60.5115 18.2434 60.9263 18.1636C61.209 18.1092 61.8234 18.2771 61.7685 18.6749C61.7219 19.0132 61.2438 19.2291 60.9442 19.1957C60.7393 19.1729 60.5179 19.0344 60.4234 18.8469C60.2261 18.4555 60.4374 18.0315 60.765 17.7992C61.3271 17.4007 61.9885 17.6354 62.5199 17.9533C62.8775 18.1672 63.579 18.7054 62.9584 19.0834C62.507 19.3584 61.8682 19.3442 61.4269 19.0572C60.8584 18.6875 60.4498 17.7654 60.857 17.141C61.1374 16.711 61.7476 16.7274 62.1843 16.834C62.3716 16.8797 62.5459 16.9433 62.6968 17.0645C62.8629 17.198 62.788 17.3475 62.6549 17.4826C62.3557 17.7865 61.8276 18.1149 61.3791 17.982C60.7861 17.8063 60.8251 17.0438 61.2536 16.7276C61.7222 16.3818 62.418 16.3749 62.962 16.4947C63.2664 16.5617 64.0854 16.8507 63.9475 17.325C63.9033 17.4773 63.7089 17.6425 63.5844 17.7072C63.2192 17.8971 62.8065 17.8991 62.4519 17.6845C62.2448 17.5593 62.0635 17.3744 62.0098 17.129C61.9111 16.6776 62.4376 16.4903 62.7792 16.4314C63.6434 16.2821 64.7047 16.4696 65.4289 16.9809C65.4931 17.0262 65.7761 17.2642 65.675 17.4277C65.4786 17.7451 64.7013 17.6022 64.4672 17.5591C63.5218 17.3849 62.6133 16.9803 61.8068 16.4648C61.6809 16.3844 61.4829 16.2504 61.3623 16.1315C61.2676 16.038 61.4193 16.0312 61.4914 16.0204C61.9729 15.9481 62.478 15.9467 62.9632 15.9583C63.5298 15.9719 64.1772 15.9864 64.7085 16.2116C64.7736 16.2391 65.3129 16.5596 65.006 16.5914C64.808 16.612 64.6171 16.6378 64.4302 16.7109C64.3744 16.7327 64.1875 16.8385 64.3836 16.7217C64.7382 16.5102 65.1342 16.3147 65.5579 16.3203C65.8302 16.3238 66.0266 16.3902 66.2603 16.5281C66.7037 16.7897 66.8848 17.1938 66.6426 17.7025C66.1156 18.8096 64.8022 19.5687 63.5915 19.535C63.2637 19.5259 62.8119 19.3734 62.5211 19.1981C62.3422 19.0903 62.1858 18.9213 62.416 18.7848C62.6694 18.6345 62.9253 18.5937 63.2224 18.5686C64.0755 18.4965 64.9302 18.6394 65.7705 18.7657C66.7687 18.9157 67.7715 19.0596 68.7619 19.2555C68.9859 19.2998 69.2063 19.3568 69.4357 19.3367C69.7194 19.3119 70.001 19.2925 70.2863 19.2985C70.4396 19.3017 70.6317 19.3123 70.7856 19.3272C70.8435 19.3327 70.9013 19.3398 70.9588 19.3487C70.9946 19.3542 71.0446 19.3404 71.0652 19.3702C71.0795 19.3909 71.0298 19.408 71.0066 19.4179C70.9132 19.4579 70.817 19.4923 70.7187 19.5183C69.8895 19.738 69.0379 19.8337 68.1801 19.8146C67.4109 19.7974 66.6899 19.663 65.9677 19.4132C65.9228 19.3976 65.8619 19.4078 65.8315 19.3714C65.796 19.3288 65.9425 19.3561 65.9975 19.363C66.1577 19.3832 66.2169 19.4837 66.16 19.6378C66.1093 19.775 65.8579 19.9512 66.1313 19.9496C66.9312 19.9447 67.7498 19.6277 68.4776 19.3331C69.3838 18.9663 70.387 18.5188 71.0819 17.8028C71.3218 17.5556 70.9659 17.5005 70.7641 17.4468C70.2124 17.3001 69.574 17.1539 68.9996 17.2282C68.8201 17.2514 68.6455 17.3067 68.4716 17.3548C68.4559 17.3592 68.414 17.3786 68.4238 17.3656C68.4275 17.3607 68.434 17.3588 68.4394 17.356C68.5433 17.3018 68.6474 17.2482 68.7523 17.1959C69.4778 16.8347 70.3005 16.4457 71.1321 16.4457" stroke="black" stroke-width="1.65442" stroke-linecap="round"/>
<path d="M66.788 19.1121C66.533 19.7277 65.8922 20.1076 65.2589 20.2207C64.8755 20.2891 64.4773 20.2557 64.0893 20.2828C63.811 20.3022 63.5163 20.1077 63.271 20.0033C62.7308 19.7731 62.1719 19.7455 61.5914 19.707C61.3079 19.6882 61.0222 19.7086 60.7396 19.6819C60.6299 19.6716 60.5177 19.6652 60.4075 19.6723C60.2543 19.6822 60.1084 19.7407 59.9595 19.7739C59.8706 19.7937 59.7728 19.8027 59.6919 19.8432" stroke="black" stroke-width="1.65442" stroke-linecap="round"/>
<path d="M71.2906 18.5595C72.0712 18.5867 72.8506 18.5865 73.6316 18.5662C74.3473 18.5475 75.3 18.618 75.9904 18.3303C76.237 18.2276 75.9179 18.4409 75.8948 18.4549C75.1623 18.901 74.3234 19.2235 73.5137 19.4941C72.8376 19.7201 72.1561 19.8773 71.4508 19.9748C71.2171 20.0071 70.4983 20.0291 71.304 20.0772C72.2359 20.1328 73.1438 20.1123 74.0722 20.0371C74.7362 19.9834 75.3612 20.2254 76.0038 20.3576C76.1425 20.3861 76.5959 20.5161 76.776 20.4288C76.8917 20.3727 76.9135 20.085 76.9362 19.9815C76.9719 19.8187 77.0328 19.6133 76.9673 19.4496C76.9179 19.3261 76.79 19.2339 76.7137 19.127C76.6079 18.9788 76.5188 18.7827 76.3621 18.6797C76.1905 18.5669 75.9717 18.8517 75.8792 18.9489C75.7654 19.0684 75.6858 19.1653 75.5832 19.2894C75.5537 19.3251 75.527 19.429 75.4942 19.3962C75.4626 19.3647 75.9162 18.9464 75.9281 18.9356C76.0077 18.8638 76.2451 18.6843 76.213 18.7865C76.0681 19.2465 75.5928 19.6602 75.2516 19.9704C75.0812 20.1253 74.655 20.5252 74.6419 20.2952C74.6204 19.9183 74.9901 19.5259 75.2383 19.2983C75.5678 18.996 75.9655 18.7433 76.3999 18.6263C76.4403 18.6154 76.5935 18.6241 76.618 18.564C76.7496 18.2403 76.7837 17.8624 76.8806 17.527C76.9283 17.3617 77.0576 16.8862 77.0897 17.0552C77.1081 17.1514 76.9207 17.37 76.8895 17.4068C76.56 17.7951 76.123 18.103 75.6477 18.2858C75.4682 18.3549 75.065 18.4939 74.9824 18.2101C74.876 17.8448 75.0567 17.3553 75.265 17.0597C75.3781 16.8992 75.6026 16.6903 75.8191 16.6903C76.0241 16.6903 75.7138 17.0947 75.5988 17.2644C75.336 17.6519 75.0128 18.0627 74.5885 18.2836C74.2724 18.4481 74.4201 17.9928 74.4639 17.8563C74.5598 17.5575 74.7032 17.2557 74.9757 17.0775C75.1575 16.9585 75.4955 16.8852 75.6522 17.0908C75.9486 17.4799 75.5169 18.116 75.1226 18.2346C74.6332 18.3819 74.8313 17.031 74.8978 16.8238C74.9052 16.8008 75.086 16.5428 75.0224 16.6613C74.7858 17.1023 74.3696 17.4856 73.9832 17.7896C73.6467 18.0543 72.2152 18.9934 72.3899 17.8697C72.4613 17.4104 72.7167 16.9518 73.1376 16.7303C73.3779 16.6039 73.7996 16.4961 74.0633 16.6279C74.3056 16.7491 73.8501 17.1269 73.7963 17.1709C73.3974 17.4974 72.7771 17.865 72.2341 17.7228C71.3526 17.4919 71.3276 15.9738 72.1985 15.7156C72.7749 15.5447 72.7627 16.2799 72.5078 16.5768C72.242 16.8864 71.0836 17.6602 70.9546 16.8216C70.8034 15.8386 72.235 15.576 72.9039 15.5932C73.7014 15.6136 74.4304 15.8958 74.998 16.4633C75.0928 16.5581 75.1802 16.6607 75.2739 16.757C75.2837 16.7672 75.4051 16.8914 75.4074 16.8861C75.4682 16.7423 75.4173 16.4719 75.4163 16.3209C75.4144 16.0213 75.3645 15.8428 75.216 15.5954" stroke="black" stroke-width="1.65442" stroke-linecap="round"/>
<path d="M31.3082 4.96667L52.6668 4.96667" stroke="black" stroke-width="1.20635"/>
<path d="M27.3334 5.02441L31.8572 2.41258V7.63623L27.3334 5.02441Z" fill="black"/>
<path d="M48.6917 14.6013L27.3331 14.6013" stroke="black" stroke-width="1.20635"/>
<path d="M52.6665 14.5435L48.1427 17.1553V11.9316L52.6665 14.5435Z" fill="black"/>
</svg>
